<svg xmlns="http://www.w3.org/2000/svg" width="117" height="93" viewBox="0 0 117 93">
    <g fill="none" fill-rule="evenodd">
        <g fill="#EEE">
            <path d="M7.64 70.414h13.119c-.995-1.162-1.495-2.657-1.495-4.317 0-.997.168-1.827.5-2.658h-1.993c-3.987 0-7.308-3.321-7.308-7.307 0-3.985 3.32-7.307 7.308-7.307h66.925c3.988 0 7.31 3.322 7.31 7.307 0 .997-.168 1.827-.5 2.657h17.769c3.987 0 7.309 3.322 7.309 7.308 0 3.985-3.322 7.307-7.309 7.307h-8.802c.997 1.162 1.497 2.657 1.497 4.318 0 3.985-3.322 7.307-7.31 7.307h-7.306v.332c0 3.986-3.322 7.307-7.306 7.307H50.986c-3.988 0-7.31-3.321-7.31-7.307v-.332H7.31C3.32 85.029 0 81.707 0 77.722c0-3.986 3.655-7.308 7.64-7.308M89.686 14.614h14.616c3.984 0 7.305-3.321 7.305-7.307S108.122 0 104.134 0H89.52c-3.986 0-7.307 3.321-7.307 7.307s3.321 7.307 7.473 7.307M24.42 24.56h7.307c3.986 0 7.308-3.32 7.308-7.306s-3.322-7.308-7.308-7.308H24.42c-3.984 0-7.305 3.322-7.305 7.308 0 3.985 3.321 7.307 7.305 7.307"/>
        </g>
        <g stroke="#FF7AAB" stroke-linecap="round" stroke-linejoin="round" stroke-width="3">
            <path d="M56 4v6.5M46 8.167l4.5 4.5M66.5 8.167L62 12.667"/>
        </g>
        <path fill="#FFF" stroke="#FF7A5E" stroke-linecap="round" stroke-linejoin="round" stroke-width="3" d="M52.455 64.455H35.409A3.409 3.409 0 0 1 32 61.045v-34.09a3.409 3.409 0 0 1 3.41-3.41h40.908a3.409 3.409 0 0 1 3.41 3.41V45.15"/>
        <path stroke="#FF7A5E" stroke-linecap="round" stroke-linejoin="round" stroke-width="3" d="M79.727 34.91H32M43.364 19v9.09M68.364 19v9.09"/>
        <path fill="#FFF" d="M68.839 53.571c-.647-1.377-1.581-2.504-3.027-3.175-2.312-1.069-4.572-.923-6.637.566-2.037 1.467-2.817 3.537-2.512 6.022.4 3.208 2.167 5.638 4.468 7.743 2.286 2.093 4.914 3.666 7.71 4.974 2.795-1.308 5.424-2.88 7.711-4.974 2.299-2.105 4.068-4.535 4.467-7.743.304-2.485-.474-4.555-2.51-6.022-2.068-1.489-4.326-1.635-6.64-.566-1.445.67-2.38 1.798-3.026 3.175h-.004z"/>
        <path stroke="#FF3B40" stroke-linecap="round" stroke-linejoin="round" stroke-width="3" d="M68.839 53.571c-.647-1.377-1.581-2.504-3.027-3.175-2.312-1.069-4.572-.923-6.637.566-2.037 1.467-2.817 3.537-2.512 6.022.4 3.208 2.167 5.638 4.468 7.743 2.286 2.093 4.914 3.666 7.71 4.974 2.795-1.308 5.424-2.88 7.711-4.974 2.299-2.105 4.068-4.535 4.467-7.743.304-2.485-.474-4.555-2.51-6.022-2.068-1.489-4.326-1.635-6.64-.566-1.445.67-2.38 1.798-3.026 3.175h-.004z"/>
        <path fill="#FAC2B8" d="M11.833 31c-.665 0-1.165.5-1.165 1.167 0 2-1.501 3.5-3.501 3.5-.665 0-1.167.5-1.167 1.166A1.14 1.14 0 0 0 7.167 38c2 0 3.501 1.5 3.501 3.5 0 .667.5 1.167 1.165 1.167.667 0 1.167-.5 1.167-1.167 0-2 1.502-3.5 3.502-3.5.665 0 1.165-.5 1.165-1.167 0-.666-.5-1.166-1.165-1.166-2 0-3.502-1.5-3.502-3.5C13 31.5 12.5 31 11.833 31"/>
        <path fill="#FFD200" d="M93.833 8c-.665 0-1.165.5-1.165 1.167 0 2-1.501 3.5-3.501 3.5-.665 0-1.167.5-1.167 1.166A1.14 1.14 0 0 0 89.167 15c2 0 3.501 1.5 3.501 3.5 0 .667.5 1.167 1.165 1.167.667 0 1.167-.5 1.167-1.167 0-2 1.502-3.5 3.502-3.5.665 0 1.165-.5 1.165-1.167 0-.666-.5-1.166-1.165-1.166-2 0-3.502-1.5-3.502-3.5C95 8.5 94.5 8 93.833 8"/>
        <path fill="#B5EDD1" d="M108.833 53c-.665 0-1.165.5-1.165 1.167 0 2-1.501 3.5-3.501 3.5-.665 0-1.167.5-1.167 1.166A1.14 1.14 0 0 0 104.167 60c2 0 3.501 1.5 3.501 3.5 0 .667.5 1.167 1.165 1.167.667 0 1.167-.5 1.167-1.167 0-2 1.502-3.5 3.502-3.5.665 0 1.165-.5 1.165-1.167 0-.666-.5-1.166-1.165-1.166-2 0-3.502-1.5-3.502-3.5 0-.667-.5-1.167-1.167-1.167"/>
    </g>
</svg>
