<svg xmlns="http://www.w3.org/2000/svg" xmlns:xlink="http://www.w3.org/1999/xlink" width="117" height="100" viewBox="0 0 117 100">
    <defs>
        <path id="a" d="M0 1.167h116.833V35H0z"/>
    </defs>
    <g fill="none" fill-rule="evenodd">
        <g transform="translate(0 64.458)">
            <mask id="b" fill="#fff">
                <use xlink:href="#a"/>
            </mask>
            <path fill="#EEE" d="M109.334 12.834H96.166c1-1.167 1.5-2.667 1.5-4.334 0-4-3.334-7.333-7.334-7.333h-83C3.334 1.167 0 4.5 0 8.5s3.333 7.334 7.333 7.334h8.834c-1 1.166-1.5 2.666-1.5 4.333 0 4 3.333 7.333 7.333 7.333h31.334v.167c0 4 3.333 7.333 7.333 7.333h29.166c4 0 7.334-3.333 7.334-7.333V27.5H109.5c4 0 7.334-3.333 7.334-7.333s-3.5-7.334-7.5-7.334" mask="url(#b)"/>
        </g>
        <path fill="#EEE" d="M24 21.125h14.666c4 0 7.334-3.334 7.334-7.334 0-4-3.498-7.333-7.5-7.333H23.833c-3.831 0-7.165 3.333-7.165 7.333s3.334 7.334 7.332 7.334M85.666 41.125H93c4 0 7.333-3.334 7.333-7.334 0-4-3.333-7.333-7.333-7.333h-7.334c-3.998 0-7.331 3.334-7.331 7.334 0 4 3.333 7.333 7.332 7.333"/>
        <g stroke="#A5A5A5" stroke-linecap="round" stroke-linejoin="round" stroke-width="3">
            <path fill="#FFF" d="M53.337 63.99s-.378 8.891.19 14c.188 2.08.567 3.596 3.026 3.596h3.216c3.406 0 1.892-3.975.379-5.108C61.283 71.18 61.472 63.8 61.472 63.8"/>
            <path d="M50.31 40.191c-.379 8.703-2.27 13.622-3.973 18.54-.946 2.838 1.703 4.163 3.027 4.354 3.027.566 9.838 1.133 16.648-.191 1.516-.379 13.813-16.27-.376-22.703"/>
            <path d="M65.371 39.865c3.029-6.433-5.486-6.054-5.486-11.54v-.947c1.324 0 5.486-2.46 5.486-6.81 0-4.73-3.216-7.568-7.757-7.568-3.783 0-7 3.405-7 7.568 0 3.027-.378 6.81 3.973 6.81v.946c-7.756.19-3.783 16.46-1.702 21.755.378.946 1.513 1.516 2.46 1.326l.756-.189c1.135-.19 1.703-1.137 1.703-2.27-.568-3.405-1.514-10.784-.379-14.568M65.445 40.003s-.946.946-3.027.946"/>
        </g>
        <g stroke="#FF7AAB" stroke-linecap="round" stroke-linejoin="round" stroke-width="3">
            <path d="M86.79 50h-6.5M82.623 39.667l-4.5 4.5M82.623 60.166l-4.5-4.498"/>
        </g>
        <path fill="#FAC2B8" d="M19.374 40c-.665 0-1.165.5-1.165 1.167 0 2-1.502 3.5-3.502 3.5-.665 0-1.166.5-1.166 1.166A1.14 1.14 0 0 0 14.707 47c2 0 3.502 1.5 3.502 3.5 0 .667.5 1.167 1.165 1.167.667 0 1.167-.5 1.167-1.167 0-2 1.502-3.5 3.502-3.5.665 0 1.165-.5 1.165-1.166 0-.667-.5-1.167-1.165-1.167-2 0-3.502-1.5-3.502-3.5 0-.667-.5-1.167-1.167-1.167"/>
        <path fill="#FFD200" d="M39.374 0c-.665 0-1.165.5-1.165 1.167 0 2-1.502 3.5-3.502 3.5-.665 0-1.166.5-1.166 1.167A1.14 1.14 0 0 0 34.708 7c2 0 3.501 1.5 3.501 3.5 0 .667.5 1.167 1.165 1.167.667 0 1.167-.5 1.167-1.167 0-2 1.502-3.5 3.502-3.5.665 0 1.165-.5 1.165-1.167 0-.666-.5-1.166-1.166-1.166-2 0-3.501-1.5-3.501-3.5C40.54.5 40.04 0 39.374 0"/>
        <path fill="#B5EDD1" d="M102.707 26.667c-.664 0-1.164.5-1.164 1.166 0 2-1.502 3.5-3.502 3.5-.665 0-1.167.5-1.167 1.167a1.14 1.14 0 0 0 1.167 1.167c2 0 3.502 1.5 3.502 3.5 0 .666.5 1.166 1.164 1.166.667 0 1.167-.5 1.167-1.166 0-2 1.502-3.5 3.502-3.5.665 0 1.165-.5 1.165-1.167 0-.666-.5-1.166-1.165-1.166-2 0-3.502-1.5-3.502-3.5 0-.667-.5-1.167-1.166-1.167"/>
    </g>
</svg>
