<svg xmlns="http://www.w3.org/2000/svg" xmlns:xlink="http://www.w3.org/1999/xlink" width="119" height="99" viewBox="0 0 119 99">
    <defs>
        <path id="a" d="M0 .237h33.214v24.515H0z"/>
    </defs>
    <g fill="none" fill-rule="evenodd">
        <path fill="#EEE" d="M84.751 82.393h-.34c-.003-.067-.014-.13-.018-.196.112.076.24.126.358.196m25.568-15.421H88.967a8.303 8.303 0 0 0-8.304 8.304c0 .23.05.444.067.67a8.25 8.25 0 0 0-4.574-1.382H26.334a8.304 8.304 0 0 0 0 16.607h26.382C52.966 95.53 56.55 99 60.972 99h33.214a8.304 8.304 0 0 0 8.304-8.304c0-3.04-1.651-5.67-4.088-7.117h11.917a8.304 8.304 0 0 0 0-16.607"/>
        <g transform="translate(0 8)">
            <mask id="b" fill="#fff">
                <use xlink:href="#a"/>
            </mask>
            <path fill="#EEE" d="M20.008 24.752h6.485a6.72 6.72 0 0 0 6.72-6.722 6.706 6.706 0 0 0-2.916-5.535 6.709 6.709 0 0 0 2.917-5.536A6.721 6.721 0 0 0 26.493.236h-6.485a6.722 6.722 0 0 0-6.588 5.4c-.072-.002-.14-.02-.213-.02H6.722a6.721 6.721 0 1 0 0 13.442h6.485c.061 0 .118-.017.18-.017.492 3.229 3.254 5.711 6.62 5.711" mask="url(#b)"/>
        </g>
        <path fill="#EEE" d="M108.421 30.436a8.304 8.304 0 0 0 0-16.607H91.814a8.302 8.302 0 0 0-8.303 8.304 8.303 8.303 0 0 0 8.303 8.303h16.607z"/>
        <g stroke="#FF7AAB" stroke-linecap="round" stroke-linejoin="round" stroke-width="3">
            <path d="M62.123 6.667v6.5M51.79 10.833l4.5 4.5M72.29 10.833l-4.499 4.5"/>
        </g>
        <path fill="#FAC2B8" d="M100.833 24c-.665 0-1.165.5-1.165 1.167 0 2-1.501 3.5-3.501 3.5-.665 0-1.167.5-1.167 1.166A1.14 1.14 0 0 0 96.167 31c2 0 3.501 1.5 3.501 3.5 0 .667.5 1.167 1.165 1.167.667 0 1.167-.5 1.167-1.167 0-2 1.502-3.5 3.502-3.5.665 0 1.165-.5 1.165-1.167 0-.666-.5-1.166-1.165-1.166-2 0-3.502-1.5-3.502-3.5 0-.667-.5-1.167-1.167-1.167"/>
        <path fill="#FFD200" d="M10.833 58c-.665 0-1.165.5-1.165 1.167 0 2-1.501 3.5-3.501 3.5-.665 0-1.167.5-1.167 1.166A1.14 1.14 0 0 0 6.167 65c2 0 3.501 1.5 3.501 3.5 0 .667.5 1.167 1.165 1.167.667 0 1.167-.5 1.167-1.167 0-2 1.502-3.5 3.502-3.5.665 0 1.165-.5 1.165-1.167 0-.666-.5-1.166-1.165-1.166-2 0-3.502-1.5-3.502-3.5C12 58.5 11.5 58 10.833 58"/>
        <path fill="#B5EDD1" d="M23.833 0c-.665 0-1.165.5-1.165 1.167 0 2-1.501 3.5-3.501 3.5-.665 0-1.167.5-1.167 1.166A1.14 1.14 0 0 0 19.167 7c2 0 3.501 1.5 3.501 3.5 0 .667.5 1.167 1.165 1.167.667 0 1.167-.5 1.167-1.167 0-2 1.502-3.5 3.502-3.5.665 0 1.165-.5 1.165-1.167 0-.666-.5-1.166-1.165-1.166-2 0-3.502-1.5-3.502-3.5C25 .5 24.5 0 23.833 0"/>
        <g>
            <path fill="#FFF" d="M48.479 31.74c-1.294-2.756-3.162-5.01-6.054-6.35-4.622-2.138-9.142-1.847-13.272 1.131-4.075 2.935-5.634 7.073-5.026 12.043.801 6.418 4.336 11.276 8.937 15.488 4.571 4.186 9.828 7.33 15.42 9.948 5.59-2.618 10.847-5.762 15.423-9.948 4.597-4.212 8.136-9.07 8.933-15.488.608-4.97-.947-9.108-5.022-12.043-4.134-2.978-8.65-3.269-13.277-1.131-2.892 1.34-4.76 3.594-6.053 6.35h-.009z"/>
            <path stroke="#FAC2B8" stroke-linecap="round" stroke-linejoin="round" stroke-width="3" d="M48.479 31.74c-1.294-2.756-3.162-5.01-6.054-6.35-4.622-2.138-9.142-1.847-13.272 1.131-4.075 2.935-5.634 7.073-5.026 12.043.801 6.418 4.336 11.276 8.937 15.488 4.571 4.186 9.828 7.33 15.42 9.948 5.59-2.618 10.847-5.762 15.423-9.948 4.597-4.212 8.136-9.07 8.933-15.488.608-4.97-.947-9.108-5.022-12.043-4.134-2.978-8.65-3.269-13.277-1.131-2.892 1.34-4.76 3.594-6.053 6.35h-.009z"/>
            <path fill="#FFF" d="M76.479 48.74c-1.294-2.756-3.162-5.01-6.054-6.35-4.622-2.138-9.142-1.847-13.272 1.131-4.075 2.935-5.634 7.073-5.026 12.043.801 6.418 4.336 11.276 8.937 15.488 4.571 4.186 9.828 7.33 15.42 9.948 5.59-2.618 10.847-5.762 15.423-9.948 4.597-4.212 8.136-9.07 8.933-15.488.608-4.97-.947-9.108-5.022-12.043-4.134-2.978-8.65-3.269-13.277-1.131-2.892 1.34-4.76 3.594-6.053 6.35h-.009z"/>
            <path stroke="#FF3B40" stroke-linecap="round" stroke-linejoin="round" stroke-width="3" d="M76.479 48.74c-1.294-2.756-3.162-5.01-6.054-6.35-4.622-2.138-9.142-1.847-13.272 1.131-4.075 2.935-5.634 7.073-5.026 12.043.801 6.418 4.336 11.276 8.937 15.488 4.571 4.186 9.828 7.33 15.42 9.948 5.59-2.618 10.847-5.762 15.423-9.948 4.597-4.212 8.136-9.07 8.933-15.488.608-4.97-.947-9.108-5.022-12.043-4.134-2.978-8.65-3.269-13.277-1.131-2.892 1.34-4.76 3.594-6.053 6.35h-.009z"/>
        </g>
    </g>
</svg>
