<svg xmlns="http://www.w3.org/2000/svg" xmlns:xlink="http://www.w3.org/1999/xlink" width="123" height="93" viewBox="0 0 123 93">
    <defs>
        <path id="a" d="M.997.83h57.792v34.045H.997z"/>
    </defs>
    <g fill="none" fill-rule="evenodd">
        <g transform="translate(63.517 57.549)">
            <mask id="b" fill="#fff">
                <use xlink:href="#a"/>
            </mask>
            <path fill="#EEE" d="M51.483 20.26h-.83c0-.332.165-.83.165-1.328 0-3.986-3.321-7.307-7.307-7.307h-6.975c.664-.997.997-2.16.997-3.488 0-3.985-3.322-7.307-7.308-7.307h-12.62c-3.987 0-7.308 3.322-7.308 7.307 0 1.329.332 2.491.996 3.488H8.304c-3.986 0-7.307 3.321-7.307 7.307s3.321 7.307 7.307 7.307h6.975c0 .332-.166.83-.166 1.329 0 3.985 3.321 7.307 7.307 7.307h29.063c3.985 0 7.307-3.322 7.307-7.307 0-3.986-3.322-7.307-7.307-7.307" mask="url(#b)"/>
        </g>
        <path fill="#EEE" d="M31.054 46.234h-.997c.666-.996.997-2.159.997-3.487 0-3.986-3.322-7.307-7.306-7.307H15.61c-3.984 0-7.305 3.321-7.305 7.307 0 1.328.33 2.49.994 3.487H7.305C3.321 46.234 0 49.556 0 53.542c0 3.985 3.321 7.307 7.305 7.307h23.583c3.987 0 7.308-3.322 7.308-7.307 0-3.986-3.157-7.308-7.142-7.308M74.307 19.68h5.314c3.986 0 7.308-3.32 7.308-7.306s-3.322-7.307-7.308-7.307h-5.314c-3.986 0-7.307 3.32-7.307 7.307 0 3.985 3.321 7.307 7.307 7.307"/>
        <path fill="#EEE" d="M84.271 14.614h5.315c3.985 0 7.307-3.321 7.307-7.307S93.57 0 89.586 0H84.27c-3.985 0-7.307 3.321-7.307 7.307s3.322 7.307 7.307 7.307"/>
        <g stroke="#FF7AAB" stroke-linecap="round" stroke-linejoin="round" stroke-width="3">
            <path d="M60.334 4v6.5M50 8.167l4.5 4.5M70.5 8.167L66 12.667"/>
        </g>
        <path fill="#FAC2B8" d="M34.833 3c-.665 0-1.165.5-1.165 1.167 0 2-1.501 3.5-3.501 3.5-.665 0-1.167.5-1.167 1.166A1.14 1.14 0 0 0 30.167 10c2 0 3.501 1.5 3.501 3.5 0 .667.5 1.167 1.165 1.167.667 0 1.167-.5 1.167-1.167 0-2 1.502-3.5 3.502-3.5.665 0 1.165-.5 1.165-1.167 0-.666-.5-1.166-1.165-1.166-2 0-3.502-1.5-3.502-3.5C36 3.5 35.5 3 34.833 3"/>
        <path fill="#FFD200" d="M22.833 75c-.665 0-1.165.5-1.165 1.167 0 2-1.501 3.5-3.501 3.5-.665 0-1.167.5-1.167 1.166A1.14 1.14 0 0 0 18.167 82c2 0 3.501 1.5 3.501 3.5 0 .667.5 1.167 1.165 1.167.667 0 1.167-.5 1.167-1.167 0-2 1.502-3.5 3.502-3.5.665 0 1.165-.5 1.165-1.167 0-.666-.5-1.166-1.165-1.166-2 0-3.502-1.5-3.502-3.5C24 75.5 23.5 75 22.833 75"/>
        <path fill="#B5EDD1" d="M93.833 27c-.665 0-1.165.5-1.165 1.167 0 2-1.501 3.5-3.501 3.5-.665 0-1.167.5-1.167 1.166A1.14 1.14 0 0 0 89.167 34c2 0 3.501 1.5 3.501 3.5 0 .667.5 1.167 1.165 1.167.667 0 1.167-.5 1.167-1.167 0-2 1.502-3.5 3.502-3.5.665 0 1.165-.5 1.165-1.167 0-.666-.5-1.166-1.165-1.166-2 0-3.502-1.5-3.502-3.5C95 27.5 94.5 27 93.833 27"/>
        <g stroke="#00A3C7" stroke-linecap="round" stroke-linejoin="round" stroke-width="3">
            <path fill="#FFF" d="M82.4 41.54V20.6H37.6v44.8h20.836"/>
            <path d="M82.4 42h-9.6l-6.4-11.2-11.2 22.4L48.8 42H37.6"/>
        </g>
        <path fill="#FFF" d="M73.839 53.571c-.647-1.377-1.581-2.504-3.027-3.175-2.312-1.069-4.572-.923-6.637.566-2.037 1.467-2.817 3.537-2.512 6.022.4 3.208 2.167 5.638 4.468 7.743 2.286 2.093 4.914 3.666 7.71 4.974 2.795-1.308 5.424-2.88 7.711-4.974 2.299-2.105 4.068-4.535 4.467-7.743.304-2.485-.474-4.555-2.51-6.022-2.068-1.489-4.326-1.635-6.64-.566-1.445.67-2.38 1.798-3.026 3.175h-.004z"/>
        <path stroke="#FF3B40" stroke-linecap="round" stroke-linejoin="round" stroke-width="3" d="M73.839 53.571c-.647-1.377-1.581-2.504-3.027-3.175-2.312-1.069-4.572-.923-6.637.566-2.037 1.467-2.817 3.537-2.512 6.022.4 3.208 2.167 5.638 4.468 7.743 2.286 2.093 4.914 3.666 7.71 4.974 2.795-1.308 5.424-2.88 7.711-4.974 2.299-2.105 4.068-4.535 4.467-7.743.304-2.485-.474-4.555-2.51-6.022-2.068-1.489-4.326-1.635-6.64-.566-1.445.67-2.38 1.798-3.026 3.175h-.004z"/>
    </g>
</svg>
